<svg width="20" height="20" viewBox="0 0 20 20" fill="none" xmlns="http://www.w3.org/2000/svg">
<path fill-rule="evenodd" clip-rule="evenodd" d="M15 2.50016C14.0795 2.50016 13.3334 3.24635 13.3334 4.16683C13.3334 5.0873 14.0795 5.8335 15 5.8335C15.9205 5.8335 16.6667 5.0873 16.6667 4.16683C16.6667 3.24635 15.9205 2.50016 15 2.50016ZM11.6667 4.16683C11.6667 2.32588 13.1591 0.833496 15 0.833496C16.841 0.833496 18.3334 2.32588 18.3334 4.16683C18.3334 6.00778 16.841 7.50016 15 7.50016C13.1591 7.50016 11.6667 6.00778 11.6667 4.16683Z" fill="#0F172A"/>
<path fill-rule="evenodd" clip-rule="evenodd" d="M5.00002 8.33317C4.07955 8.33317 3.33335 9.07936 3.33335 9.99984C3.33335 10.9203 4.07955 11.6665 5.00002 11.6665C5.92049 11.6665 6.66669 10.9203 6.66669 9.99984C6.66669 9.07936 5.92049 8.33317 5.00002 8.33317ZM1.66669 9.99984C1.66669 8.15889 3.15907 6.6665 5.00002 6.6665C6.84097 6.6665 8.33335 8.15889 8.33335 9.99984C8.33335 11.8408 6.84097 13.3332 5.00002 13.3332C3.15907 13.3332 1.66669 11.8408 1.66669 9.99984Z" fill="#0F172A"/>
<path fill-rule="evenodd" clip-rule="evenodd" d="M15 14.1667C14.0795 14.1667 13.3334 14.9129 13.3334 15.8333C13.3334 16.7538 14.0795 17.5 15 17.5C15.9205 17.5 16.6667 16.7538 16.6667 15.8333C16.6667 14.9129 15.9205 14.1667 15 14.1667ZM11.6667 15.8333C11.6667 13.9924 13.1591 12.5 15 12.5C16.841 12.5 18.3334 13.9924 18.3334 15.8333C18.3334 17.6743 16.841 19.1667 15 19.1667C13.1591 19.1667 11.6667 17.6743 11.6667 15.8333Z" fill="#0F172A"/>
<path fill-rule="evenodd" clip-rule="evenodd" d="M6.43835 10.8387C6.67007 10.4411 7.18028 10.3065 7.57792 10.5383L13.2696 13.8549C13.6672 14.0867 13.8018 14.5969 13.57 14.9945C13.3383 15.3922 12.8281 15.5267 12.4305 15.2949L6.73879 11.9783C6.34115 11.7466 6.20663 11.2364 6.43835 10.8387Z" fill="#0F172A"/>
<path fill-rule="evenodd" clip-rule="evenodd" d="M13.5614 5.00475C13.7934 5.40225 13.6592 5.91254 13.2617 6.14452L7.57838 9.46118C7.18088 9.69316 6.67059 9.55897 6.43862 9.16147C6.20665 8.76397 6.34083 8.25368 6.73834 8.0217L12.4217 4.70504C12.8192 4.47307 13.3295 4.60725 13.5614 5.00475Z" fill="#0F172A"/>
</svg>
