<svg width="24" height="24" viewBox="0 0 24 24" fill="none" xmlns="http://www.w3.org/2000/svg">
<path fill-rule="evenodd" clip-rule="evenodd" d="M5 4C4.73478 4 4.48043 4.10536 4.29289 4.29289C4.10536 4.48043 4 4.73478 4 5V19C4 19.2652 4.10536 19.5196 4.29289 19.7071C4.48043 19.8946 4.73478 20 5 20H19C19.2652 20 19.5196 19.8946 19.7071 19.7071C19.8946 19.5196 20 19.2652 20 19V12C20 11.4477 20.4477 11 21 11C21.5523 11 22 11.4477 22 12V19C22 19.7957 21.6839 20.5587 21.1213 21.1213C20.5587 21.6839 19.7957 22 19 22H5C4.20435 22 3.44129 21.6839 2.87868 21.1213C2.31607 20.5587 2 19.7957 2 19V5C2 4.20435 2.31607 3.44129 2.87868 2.87868C3.44129 2.31607 4.20435 2 5 2H12C12.5523 2 13 2.44772 13 3C13 3.55228 12.5523 4 12 4H5Z" fill="white"/>
<path fill-rule="evenodd" clip-rule="evenodd" d="M15 5C15 4.44772 15.4477 4 16 4H22C22.5523 4 23 4.44772 23 5C23 5.55228 22.5523 6 22 6H16C15.4477 6 15 5.55228 15 5Z" fill="white"/>
<path fill-rule="evenodd" clip-rule="evenodd" d="M19 1C19.5523 1 20 1.44772 20 2V8C20 8.55228 19.5523 9 19 9C18.4477 9 18 8.55228 18 8V2C18 1.44772 18.4477 1 19 1Z" fill="white"/>
<path fill-rule="evenodd" clip-rule="evenodd" d="M9 8C8.44772 8 8 8.44772 8 9C8 9.55228 8.44772 10 9 10C9.55228 10 10 9.55228 10 9C10 8.44772 9.55228 8 9 8ZM6 9C6 7.34315 7.34315 6 9 6C10.6569 6 12 7.34315 12 9C12 10.6569 10.6569 12 9 12C7.34315 12 6 10.6569 6 9Z" fill="white"/>
<path fill-rule="evenodd" clip-rule="evenodd" d="M14.379 11.207C14.9416 10.6446 15.7045 10.3286 16.5 10.3286C17.2955 10.3286 18.0584 10.6446 18.621 11.207L21.7071 14.2931C22.0976 14.6836 22.0976 15.3168 21.7071 15.7073C21.3166 16.0978 20.6834 16.0978 20.2929 15.7073L17.207 12.6214C17.207 12.6214 17.207 12.6214 17.207 12.6214C17.0195 12.434 16.7651 12.3286 16.5 12.3286C16.2349 12.3286 15.9806 12.4339 15.7931 12.6213C15.7931 12.6213 15.7931 12.6213 15.7931 12.6213L6.70711 21.7073C6.31658 22.0978 5.68342 22.0978 5.29289 21.7073C4.90237 21.3168 4.90237 20.6836 5.29289 20.2931L14.379 11.207Z" fill="white"/>
</svg>
