<svg width="16" height="16" viewBox="0 0 16 16" fill="none" xmlns="http://www.w3.org/2000/svg">
<path fill-rule="evenodd" clip-rule="evenodd" d="M1.99998 0.666504C2.36817 0.666504 2.66665 0.964981 2.66665 1.33317V4.6665H5.99998C6.36817 4.6665 6.66665 4.96498 6.66665 5.33317C6.66665 5.70136 6.36817 5.99984 5.99998 5.99984H1.99998C1.63179 5.99984 1.33331 5.70136 1.33331 5.33317V1.33317C1.33331 0.964981 1.63179 0.666504 1.99998 0.666504Z" fill="white"/>
<path fill-rule="evenodd" clip-rule="evenodd" d="M6.97194 1.41861C8.24299 1.22024 9.54428 1.39384 10.7189 1.91849C11.8935 2.44314 12.8912 3.29642 13.5916 4.37542C14.2921 5.45441 14.6655 6.71303 14.6667 7.99946C14.667 8.36765 14.3688 8.6664 14.0006 8.66674C13.6324 8.66707 13.3337 8.36887 13.3333 8.00068C13.3324 6.97153 13.0337 5.96464 12.4733 5.10144C11.9129 4.23825 11.1148 3.55562 10.1751 3.1359C9.23542 2.71618 8.19439 2.5773 7.17755 2.736C6.16104 2.89465 5.21211 3.34392 4.44516 4.02965C4.44492 4.02987 4.44467 4.03009 4.44443 4.03031L2.44596 5.82893C2.17229 6.07524 1.75076 6.05305 1.50446 5.77938C1.25815 5.50571 1.28034 5.08418 1.55401 4.83787L3.55554 3.0365C4.51439 2.17888 5.70089 1.61699 6.97194 1.41861Z" fill="white"/>
<path fill-rule="evenodd" clip-rule="evenodd" d="M9.33331 10.6667C9.33331 10.2985 9.63179 10 9.99998 10H14C14.3682 10 14.6666 10.2985 14.6666 10.6667V14.6667C14.6666 15.0349 14.3682 15.3333 14 15.3333C13.6318 15.3333 13.3333 15.0349 13.3333 14.6667V11.3333H9.99998C9.63179 11.3333 9.33331 11.0349 9.33331 10.6667Z" fill="white"/>
<path fill-rule="evenodd" clip-rule="evenodd" d="M1.99937 7.3335C2.36756 7.33316 2.66631 7.63137 2.66665 7.99956C2.66758 9.0287 2.96626 10.0356 3.52665 10.8988C4.08704 11.762 4.8852 12.4446 5.82487 12.8643C6.76454 13.2841 7.80558 13.4229 8.82242 13.2642C9.83893 13.1056 10.7879 12.6563 11.5548 11.9706C11.555 11.9704 11.5553 11.9701 11.5555 11.9699L13.554 10.1713C13.8277 9.92499 14.2492 9.94718 14.4955 10.2209C14.7418 10.4945 14.7196 10.9161 14.446 11.1624L12.446 12.9624L12.4444 12.9637C11.4856 13.8214 10.2991 14.3832 9.02802 14.5816C7.75698 14.78 6.45568 14.6064 5.2811 14.0817C4.10651 13.5571 3.1088 12.7038 2.40832 11.6248C1.70783 10.5458 1.33449 9.2872 1.33331 8.00077C1.33298 7.63258 1.63118 7.33383 1.99937 7.3335Z" fill="white"/>
</svg>
