<svg width="20" height="20" viewBox="0 0 20 20" fill="none" xmlns="http://www.w3.org/2000/svg">
<path d="M15 4.1665C15 3.94549 14.9121 3.73359 14.7558 3.57731C14.5996 3.42103 14.3877 3.33317 14.1666 3.33317H5.83331C5.6123 3.33317 5.4004 3.42103 5.24412 3.57731C5.08784 3.73359 4.99998 3.94549 4.99998 4.1665V16.0635L9.58657 13.443L9.68504 13.395C9.92039 13.2989 10.1892 13.3149 10.4134 13.443L15 16.0635V4.1665ZM16.6666 17.4998C16.6666 17.7969 16.5085 18.0718 16.2516 18.2209C15.9947 18.3699 15.6778 18.3707 15.4199 18.2233L9.99998 15.126L4.58006 18.2233C4.32217 18.3707 4.00526 18.3699 3.74835 18.2209C3.49142 18.0718 3.33331 17.7969 3.33331 17.4998V4.1665C3.33331 3.50346 3.59689 2.86777 4.06573 2.39893C4.53458 1.93008 5.17027 1.6665 5.83331 1.6665H14.1666C14.8297 1.6665 15.4654 1.93008 15.9342 2.39893C16.4031 2.86777 16.6666 3.50346 16.6666 4.1665V17.4998Z" fill="#18181B"/>
</svg>
