<svg width="16" height="16" viewBox="0 0 16 16" fill="none" xmlns="http://www.w3.org/2000/svg">
<path d="M13.6733 8.79334L13.5933 8.75334C13.4933 8.69334 13.4067 8.61334 13.3467 8.50667C13.2867 8.40667 13.26 8.28667 13.26 8.16667V7.83334C13.26 7.71334 13.2933 7.60001 13.3467 7.50001C13.4067 7.40001 13.4867 7.31334 13.6 7.24667L13.6933 7.19334C14.1533 6.92667 14.4867 6.49334 14.62 5.98001C14.76 5.46667 14.6867 4.92667 14.42 4.46001L14.2733 4.20667C14.0067 3.74667 13.5733 3.41334 13.06 3.28001C12.5467 3.14001 12.0067 3.21334 11.56 3.46667L11.44 3.53334C11.24 3.65334 10.9733 3.65334 10.7733 3.53334L10.4867 3.36667C10.3867 3.30667 10.3 3.22667 10.2467 3.12667C10.1867 3.02667 10.16 2.90667 10.16 2.79334V2.67334C10.16 2.14001 9.95335 1.64001 9.57335 1.26001C9.19335 0.880007 8.69335 0.67334 8.16001 0.67334H7.86668C7.33335 0.67334 6.83335 0.880007 6.45335 1.26001C6.07335 1.64001 5.86668 2.14001 5.86668 2.67334V2.79334C5.86668 2.90667 5.83335 3.02667 5.78001 3.12667C5.72001 3.22667 5.64001 3.31334 5.53335 3.37334L5.24668 3.54001C5.04668 3.66001 4.80001 3.66667 4.56001 3.52667L4.48001 3.48667C4.02001 3.22001 3.48001 3.14667 2.96668 3.28667C2.45335 3.42667 2.02001 3.75334 1.75335 4.21334L1.60668 4.46667C1.33335 4.92001 1.26668 5.46001 1.40001 5.97334C1.54001 6.48667 1.86668 6.92001 2.29335 7.16667L2.42668 7.25334C2.52668 7.31334 2.61335 7.39334 2.66668 7.49334C2.72668 7.59334 2.75335 7.70667 2.76001 7.82001V8.16001C2.76001 8.28001 2.72668 8.39334 2.67335 8.49334C2.61335 8.59334 2.53335 8.68001 2.42001 8.74667L2.32668 8.80001C1.86668 9.06667 1.53335 9.50001 1.40001 10.0133C1.26001 10.5267 1.33335 11.0667 1.60001 11.5333L1.74668 11.7867C2.01335 12.2467 2.44668 12.58 2.96001 12.7133C3.47335 12.8533 4.01335 12.78 4.46001 12.5267L4.58001 12.46C4.78001 12.34 5.04668 12.34 5.24668 12.46L5.53335 12.6267C5.63335 12.6867 5.72001 12.7667 5.77335 12.8667C5.83335 12.9667 5.86001 13.08 5.86001 13.2V13.32C5.86001 13.8533 6.06668 14.36 6.44668 14.7333C6.82668 15.1133 7.32668 15.32 7.86001 15.32H8.15335C8.68668 15.32 9.18668 15.1133 9.56668 14.7333C9.94668 14.3533 10.1533 13.8533 10.1533 13.32V13.2C10.1533 13.0867 10.1867 12.9667 10.24 12.8667C10.2933 12.7667 10.38 12.68 10.4867 12.62L10.7733 12.4533C10.9733 12.3333 11.22 12.3267 11.46 12.4667L11.54 12.5067C12 12.7733 12.54 12.8467 13.0533 12.7067C13.5667 12.5667 14 12.24 14.2733 11.7733L14.42 11.52C14.68 11.0667 14.7533 10.5133 14.62 10.0067C14.48 9.49334 14.1533 9.06001 13.6667 8.78001L13.6733 8.79334ZM13.2667 10.8733L13.12 11.1267C13.0333 11.28 12.8867 11.3933 12.7133 11.4333C12.54 11.48 12.36 11.4533 12.1867 11.3533L12.1067 11.3133C11.5 10.96 10.7133 10.96 10.1067 11.3133L9.82001 11.48C9.52001 11.6533 9.26668 11.9067 9.08668 12.2133C8.91335 12.52 8.82001 12.86 8.82001 13.2133V13.3333C8.82001 13.5133 8.75335 13.68 8.62668 13.8067C8.50001 13.9333 8.33335 14 8.15335 14H7.86001C7.68001 14 7.51335 13.9333 7.38668 13.8067C7.26001 13.68 7.19335 13.5133 7.19335 13.3333V13.2133C7.19335 12.86 7.10001 12.52 6.92668 12.2133C6.75335 11.9067 6.50001 11.66 6.19335 11.4867L5.90668 11.32C5.60001 11.1467 5.26001 11.0533 4.90668 11.0533C4.55335 11.0533 4.21335 11.1467 3.92668 11.3133L3.80668 11.38C3.65335 11.4667 3.47335 11.4933 3.30001 11.4467C3.12668 11.4 2.98668 11.2933 2.89335 11.14L2.74668 10.8867C2.66001 10.7333 2.63335 10.5533 2.68001 10.38C2.72668 10.2067 2.83335 10.0667 3.00001 9.96667L3.08668 9.91334C3.39335 9.74001 3.64668 9.48001 3.82001 9.18001C3.99335 8.87334 4.08668 8.52667 4.08668 8.18001V7.83334C4.08668 7.48667 3.99335 7.14001 3.81335 6.84001C3.64001 6.54001 3.38668 6.28667 3.12001 6.13334L2.98668 6.04667C2.83335 5.96001 2.72001 5.81334 2.67335 5.64001C2.62668 5.46667 2.65335 5.28667 2.74001 5.13334L2.88668 4.88001C2.97335 4.72667 3.12001 4.61334 3.29335 4.57334C3.46668 4.52667 3.64668 4.55334 3.82001 4.65334L3.90001 4.69334C4.50668 5.04667 5.29335 5.04667 5.90001 4.69334L6.18668 4.52667C6.49335 4.35334 6.74668 4.10001 6.92001 3.79334C7.09335 3.48667 7.18668 3.14667 7.18668 2.79334V2.67334C7.18668 2.50001 7.26001 2.32667 7.38001 2.20001C7.50668 2.07334 7.67335 2.00667 7.85335 2.00667H8.14668C8.32668 2.00667 8.49335 2.07334 8.62001 2.20001C8.74668 2.32667 8.81335 2.49334 8.81335 2.67334V2.79334C8.81335 3.14667 8.90668 3.48667 9.08001 3.79334C9.25335 4.10001 9.50668 4.34667 9.80668 4.52001L10.0933 4.68667C10.7 5.04001 11.5067 5.02667 12.0733 4.70001L12.1933 4.63334C12.3467 4.54667 12.5267 4.52001 12.7 4.56667C12.8733 4.61334 13.0133 4.72001 13.1067 4.88001L13.2533 5.13334C13.34 5.28667 13.3667 5.46667 13.32 5.64001C13.2733 5.81334 13.1667 5.95334 13 6.05334L12.9067 6.10667C12.6 6.28001 12.3467 6.53334 12.1733 6.84001C12 7.14667 11.9067 7.49334 11.9067 7.84001V8.17334C11.9067 8.52667 12 8.87334 12.1733 9.18001C12.3467 9.48667 12.6 9.74001 12.9267 9.92667L13.0067 9.96667C13.16 10.0533 13.2733 10.2 13.3133 10.3733C13.36 10.54 13.3333 10.7267 13.2467 10.8867L13.2667 10.8733Z" fill="#0F172A"/>
<path d="M8.01367 5.99854C9.11959 5.99871 10.0146 6.89453 10.0146 8.00049C10.0145 9.10629 9.11948 10.0013 8.01367 10.0015C6.90772 10.0015 6.01189 9.1064 6.01172 8.00049C6.01172 6.89442 6.90761 5.99854 8.01367 5.99854ZM8.01367 6.00146C6.91307 6.00146 6.01465 6.89989 6.01465 8.00049C6.01483 9.10094 6.91318 9.99854 8.01367 9.99854C9.11402 9.99836 10.0115 9.10083 10.0117 8.00049C10.0117 6.89999 9.11413 6.00164 8.01367 6.00146Z" fill="#0F172A" stroke="#0F172A" stroke-width="1.33"/>
</svg>
