<svg width="20" height="20" viewBox="0 0 20 20" fill="none" xmlns="http://www.w3.org/2000/svg">
<path fill-rule="evenodd" clip-rule="evenodd" d="M1.66663 3.33317C1.66663 2.4127 2.41282 1.6665 3.33329 1.6665H5.83329C6.75377 1.6665 7.49996 2.4127 7.49996 3.33317V5.83317C7.49996 6.75365 6.75377 7.49984 5.83329 7.49984H3.33329C2.41282 7.49984 1.66663 6.75365 1.66663 5.83317V3.33317ZM5.83329 3.33317H3.33329V5.83317H5.83329V3.33317Z" fill="#71717A"/>
<path fill-rule="evenodd" clip-rule="evenodd" d="M12.5 3.33317C12.5 2.4127 13.2462 1.6665 14.1667 1.6665H16.6667C17.5871 1.6665 18.3333 2.4127 18.3333 3.33317V5.83317C18.3333 6.75365 17.5871 7.49984 16.6667 7.49984H14.1667C13.2462 7.49984 12.5 6.75365 12.5 5.83317V3.33317ZM16.6667 3.33317H14.1667V5.83317H16.6667V3.33317Z" fill="#71717A"/>
<path fill-rule="evenodd" clip-rule="evenodd" d="M1.66663 14.1667C1.66663 13.2462 2.41282 12.5 3.33329 12.5H5.83329C6.75377 12.5 7.49996 13.2462 7.49996 14.1667V16.6667C7.49996 17.5871 6.75377 18.3333 5.83329 18.3333H3.33329C2.41282 18.3333 1.66663 17.5871 1.66663 16.6667V14.1667ZM5.83329 14.1667H3.33329V16.6667H5.83329V14.1667Z" fill="#71717A"/>
<path fill-rule="evenodd" clip-rule="evenodd" d="M13.2322 13.2322C13.7011 12.7634 14.337 12.5 15 12.5H17.5C17.9602 12.5 18.3333 12.8731 18.3333 13.3333C18.3333 13.7936 17.9602 14.1667 17.5 14.1667H15C14.779 14.1667 14.567 14.2545 14.4107 14.4107C14.2545 14.567 14.1667 14.779 14.1667 15V17.5C14.1667 17.9602 13.7936 18.3333 13.3333 18.3333C12.8731 18.3333 12.5 17.9602 12.5 17.5V15C12.5 14.337 12.7634 13.7011 13.2322 13.2322Z" fill="#71717A"/>
<path fill-rule="evenodd" clip-rule="evenodd" d="M17.5 16.6665C17.9602 16.6665 18.3333 17.0396 18.3333 17.4998V17.5082C18.3333 17.9684 17.9602 18.3415 17.5 18.3415C17.0397 18.3415 16.6666 17.9684 16.6666 17.5082V17.4998C16.6666 17.0396 17.0397 16.6665 17.5 16.6665Z" fill="#71717A"/>
<path fill-rule="evenodd" clip-rule="evenodd" d="M10 5C10.4602 5 10.8333 5.3731 10.8333 5.83333V8.33333C10.8333 8.99638 10.5699 9.63226 10.1011 10.1011C9.63226 10.5699 8.99638 10.8333 8.33333 10.8333H5.83333C5.3731 10.8333 5 10.4602 5 10C5 9.53976 5.3731 9.16667 5.83333 9.16667H8.33333C8.55435 9.16667 8.76631 9.07887 8.92259 8.92259C9.07887 8.76631 9.16667 8.55435 9.16667 8.33333V5.83333C9.16667 5.3731 9.53976 5 10 5Z" fill="#71717A"/>
<path fill-rule="evenodd" clip-rule="evenodd" d="M1.66663 9.99984C1.66663 9.5396 2.03972 9.1665 2.49996 9.1665H2.50829C2.96853 9.1665 3.34163 9.5396 3.34163 9.99984C3.34163 10.4601 2.96853 10.8332 2.50829 10.8332H2.49996C2.03972 10.8332 1.66663 10.4601 1.66663 9.99984Z" fill="#71717A"/>
<path fill-rule="evenodd" clip-rule="evenodd" d="M9.16663 2.49984C9.16663 2.0396 9.53972 1.6665 9.99996 1.6665H10.0083C10.4685 1.6665 10.8416 2.0396 10.8416 2.49984C10.8416 2.96007 10.4685 3.33317 10.0083 3.33317H9.99996C9.53972 3.33317 9.16663 2.96007 9.16663 2.49984Z" fill="#71717A"/>
<path fill-rule="evenodd" clip-rule="evenodd" d="M9.99996 12.5C10.4602 12.5 10.8333 12.8731 10.8333 13.3333V13.3417C10.8333 13.8019 10.4602 14.175 9.99996 14.175C9.53972 14.175 9.16663 13.8019 9.16663 13.3417V13.3333C9.16663 12.8731 9.53972 12.5 9.99996 12.5Z" fill="#71717A"/>
<path fill-rule="evenodd" clip-rule="evenodd" d="M12.5 9.99984C12.5 9.5396 12.8731 9.1665 13.3333 9.1665H14.1667C14.6269 9.1665 15 9.5396 15 9.99984C15 10.4601 14.6269 10.8332 14.1667 10.8332H13.3333C12.8731 10.8332 12.5 10.4601 12.5 9.99984Z" fill="#71717A"/>
<path fill-rule="evenodd" clip-rule="evenodd" d="M17.5 9.1665C17.9602 9.1665 18.3333 9.5396 18.3333 9.99984V10.0082C18.3333 10.4684 17.9602 10.8415 17.5 10.8415C17.0397 10.8415 16.6666 10.4684 16.6666 10.0082V9.99984C16.6666 9.5396 17.0397 9.1665 17.5 9.1665Z" fill="#71717A"/>
<path fill-rule="evenodd" clip-rule="evenodd" d="M9.99996 15.8335C10.4602 15.8335 10.8333 16.2066 10.8333 16.6668V17.5002C10.8333 17.9604 10.4602 18.3335 9.99996 18.3335C9.53972 18.3335 9.16663 17.9604 9.16663 17.5002V16.6668C9.16663 16.2066 9.53972 15.8335 9.99996 15.8335Z" fill="#71717A"/>
</svg>
