<svg width="16" height="16" viewBox="0 0 16 16" fill="none" xmlns="http://www.w3.org/2000/svg">
<path d="M13.3333 4C13.7015 4 14 4.29848 14 4.66667C14 5.03486 13.7015 5.33333 13.3333 5.33333H7.33329C6.9651 5.33333 6.66663 5.03486 6.66663 4.66667C6.66663 4.29848 6.9651 4 7.33329 4H13.3333Z" fill="#1E6EB4"/>
<path d="M9.33329 10.6665C9.70148 10.6665 9.99996 10.965 9.99996 11.3332C9.99996 11.7014 9.70148 11.9998 9.33329 11.9998H3.33329C2.9651 11.9998 2.66663 11.7014 2.66663 11.3332C2.66663 10.965 2.9651 10.6665 3.33329 10.6665H9.33329Z" fill="#1E6EB4"/>
<path d="M12.6666 11.3332C12.6666 10.5968 12.0697 9.99984 11.3333 9.99984C10.5969 9.99984 9.99996 10.5968 9.99996 11.3332C9.99996 12.0696 10.5969 12.6665 11.3333 12.6665C12.0697 12.6665 12.6666 12.0696 12.6666 11.3332ZM14 11.3332C14 12.8059 12.8061 13.9998 11.3333 13.9998C9.86053 13.9998 8.66663 12.8059 8.66663 11.3332C8.66663 9.86041 9.86053 8.6665 11.3333 8.6665C12.8061 8.6665 14 9.86041 14 11.3332Z" fill="#1E6EB4"/>
<path d="M6 4.66667C6 3.93029 5.40305 3.33333 4.66667 3.33333C3.93029 3.33333 3.33333 3.93029 3.33333 4.66667C3.33333 5.40305 3.93029 6 4.66667 6C5.40305 6 6 5.40305 6 4.66667ZM7.33333 4.66667C7.33333 6.13943 6.13943 7.33333 4.66667 7.33333C3.19391 7.33333 2 6.13943 2 4.66667C2 3.19391 3.19391 2 4.66667 2C6.13943 2 7.33333 3.19391 7.33333 4.66667Z" fill="#1E6EB4"/>
</svg>
