<svg width="16" height="16" viewBox="0 0 16 16" fill="none" xmlns="http://www.w3.org/2000/svg">
<path fill-rule="evenodd" clip-rule="evenodd" d="M1.33337 2.00016C1.33337 1.63197 1.63185 1.3335 2.00004 1.3335H14C14.3682 1.3335 14.6667 1.63197 14.6667 2.00016V6.66683C14.6667 7.03502 14.3682 7.3335 14 7.3335H2.00004C1.63185 7.3335 1.33337 7.03502 1.33337 6.66683V2.00016ZM2.66671 2.66683V6.00016H13.3334V2.66683H2.66671Z" fill="#0F172A"/>
<path fill-rule="evenodd" clip-rule="evenodd" d="M10 9.33317C10 8.96498 10.2985 8.6665 10.6667 8.6665H14C14.3682 8.6665 14.6667 8.96498 14.6667 9.33317V13.9998C14.6667 14.368 14.3682 14.6665 14 14.6665H10.6667C10.2985 14.6665 10 14.368 10 13.9998V9.33317ZM11.3333 9.99984V13.3332H13.3333V9.99984H11.3333Z" fill="#0F172A"/>
<path fill-rule="evenodd" clip-rule="evenodd" d="M1.33337 9.33317C1.33337 8.96498 1.63185 8.6665 2.00004 8.6665H8.00004C8.36823 8.6665 8.66671 8.96498 8.66671 9.33317V13.9998C8.66671 14.368 8.36823 14.6665 8.00004 14.6665H2.00004C1.63185 14.6665 1.33337 14.368 1.33337 13.9998V9.33317ZM2.66671 9.99984V13.3332H7.33337V9.99984H2.66671Z" fill="#0F172A"/>
</svg>
