<svg width="16" height="16" viewBox="0 0 16 16" fill="none" xmlns="http://www.w3.org/2000/svg">
<path fill-rule="evenodd" clip-rule="evenodd" d="M3.33334 2.66683C3.15653 2.66683 2.98696 2.73707 2.86194 2.86209C2.73691 2.98712 2.66668 3.15668 2.66668 3.3335V12.6668C2.66668 12.8436 2.73691 13.0132 2.86194 13.1382C2.98696 13.2633 3.15653 13.3335 3.33334 13.3335H12.6667C12.8435 13.3335 13.0131 13.2633 13.1381 13.1382C13.2631 13.0132 13.3333 12.8436 13.3333 12.6668V8.00016C13.3333 7.63197 13.6318 7.3335 14 7.3335C14.3682 7.3335 14.6667 7.63197 14.6667 8.00016V12.6668C14.6667 13.1973 14.456 13.706 14.0809 14.081C13.7058 14.4561 13.1971 14.6668 12.6667 14.6668H3.33334C2.80291 14.6668 2.2942 14.4561 1.91913 14.081C1.54406 13.706 1.33334 13.1973 1.33334 12.6668V3.3335C1.33334 2.80306 1.54406 2.29436 1.91913 1.91928C2.2942 1.54421 2.80291 1.3335 3.33334 1.3335H8.00001C8.3682 1.3335 8.66668 1.63197 8.66668 2.00016C8.66668 2.36835 8.3682 2.66683 8.00001 2.66683H3.33334Z" fill="#18181B"/>
<path d="M16 3C16 2.74302 15.8657 2.51955 15.6474 2.40782C15.4571 2.30726 15.1829 2.25698 14.9198 2.21229C14.7407 2.17877 14.556 2.14525 14.4329 2.10614C14.209 2.02235 13.9963 1.82682 13.9124 1.61453C13.8564 1.47486 13.8228 1.27374 13.7892 1.0838C13.7445 0.826816 13.6941 0.564246 13.5934 0.368715C13.4758 0.139665 13.2463 0 12.9945 0C12.7258 0 12.4964 0.150838 12.39 0.391061C12.2837 0.625698 12.2445 0.865922 12.2053 1.09497C12.127 1.54749 12.0598 1.8324 11.7184 2.03352C11.5505 2.12849 11.3042 2.17318 11.0636 2.21229C10.8173 2.25698 10.5655 2.29609 10.3584 2.40223C10.1457 2.51397 10.0058 2.73743 10.0002 2.98324C9.99458 3.22905 10.1233 3.45251 10.3304 3.57542C10.5151 3.68156 10.7949 3.73184 11.086 3.78771C11.2763 3.82123 11.4666 3.85475 11.5841 3.89944C12.0262 4.06145 12.1046 4.36871 12.1997 4.89944C12.2445 5.1229 12.2893 5.35754 12.3788 5.58101C12.4572 5.78212 12.5915 5.86033 12.6979 5.92737L12.7426 5.95531C12.7874 5.98324 12.8378 6 12.8937 6H13.0896C13.1456 6 13.2072 5.97765 13.2575 5.94413C13.2967 5.92179 13.3471 5.90503 13.3919 5.86592C13.6325 5.67598 13.7165 5.26816 13.8004 4.83799C13.834 4.6648 13.8732 4.49162 13.9068 4.39665C13.9963 4.17318 14.2034 3.97207 14.4329 3.89385C14.556 3.84916 14.7407 3.81564 14.9198 3.78212C15.1829 3.73743 15.4571 3.68715 15.6474 3.59218C15.8657 3.47486 16 3.2514 16 3ZM13.8172 2.98883C13.8172 3.03352 13.599 3.14525 13.5542 3.18436C13.3191 3.35754 13.1512 3.57542 13.0001 3.82123C12.7874 3.50838 12.53 3.1676 12.1606 3.02235C12.1438 2.95531 12.2389 2.95531 12.2893 2.92179C12.5915 2.72067 12.8098 2.47486 13.0001 2.17318C13.1512 2.41899 13.3247 2.63687 13.5542 2.81564C13.5934 2.84358 13.8172 2.97207 13.8172 2.98324V2.98883Z" fill="#18181B"/>
<path fill-rule="evenodd" clip-rule="evenodd" d="M6 5.33333C5.63181 5.33333 5.33333 5.63181 5.33333 6C5.33333 6.36819 5.63181 6.66667 6 6.66667C6.36819 6.66667 6.66667 6.36819 6.66667 6C6.66667 5.63181 6.36819 5.33333 6 5.33333ZM4 6C4 4.89543 4.89543 4 6 4C7.10457 4 8 4.89543 8 6C8 7.10457 7.10457 8 6 8C4.89543 8 4 7.10457 4 6Z" fill="#18181B"/>
<path fill-rule="evenodd" clip-rule="evenodd" d="M9.58601 7.47131C9.96107 7.09637 10.4697 6.88574 11 6.88574C11.5303 6.88574 12.039 7.09637 12.414 7.47131L14.4714 9.52872C14.7318 9.78907 14.7318 10.2112 14.4714 10.4715C14.2111 10.7319 13.789 10.7319 13.5286 10.4715L11.4713 8.41427C11.4713 8.41424 11.4714 8.41429 11.4713 8.41427C11.3463 8.28933 11.1768 8.21908 11 8.21908C10.8233 8.21908 10.6538 8.28926 10.5287 8.41419C10.5287 8.41422 10.5288 8.41417 10.5287 8.41419L4.47141 14.4715C4.21107 14.7319 3.78896 14.7319 3.52861 14.4715C3.26826 14.2112 3.26826 13.7891 3.52861 13.5287L9.58601 7.47131Z" fill="#18181B"/>
</svg>
