<svg width="16" height="16" viewBox="0 0 16 16" fill="none" xmlns="http://www.w3.org/2000/svg">
<path d="M12 3.3335C12 3.15669 11.9297 2.98717 11.8047 2.86214C11.6797 2.73712 11.5101 2.66683 11.3333 2.66683H4.66666C4.48985 2.66683 4.32033 2.73712 4.1953 2.86214C4.07028 2.98717 3.99999 3.15668 3.99999 3.3335V12.8511L7.66926 10.7547L7.74804 10.7163C7.93632 10.6394 8.15136 10.6522 8.33072 10.7547L12 12.8511V3.3335ZM13.3333 14.0002C13.3333 14.2378 13.2068 14.4577 13.0013 14.577C12.7958 14.6962 12.5422 14.6968 12.3359 14.5789L7.99999 12.1011L3.66405 14.5789C3.45774 14.6968 3.20422 14.6962 2.99869 14.577C2.79314 14.4577 2.66666 14.2378 2.66666 14.0002V3.3335C2.66666 2.80306 2.87752 2.29451 3.25259 1.91943C3.62767 1.54436 4.13622 1.3335 4.66666 1.3335H11.3333C11.8638 1.3335 12.3723 1.54436 12.7474 1.91943C13.1225 2.29451 13.3333 2.80306 13.3333 3.3335V14.0002Z" fill="white"/>
</svg>
