<svg width="17" height="16" viewBox="0 0 17 16" fill="none" xmlns="http://www.w3.org/2000/svg">
<path fill-rule="evenodd" clip-rule="evenodd" d="M1.53333 2.00016C1.53333 1.63197 1.8318 1.3335 2.19999 1.3335H14.2C14.5682 1.3335 14.8667 1.63197 14.8667 2.00016V6.66683C14.8667 7.03502 14.5682 7.3335 14.2 7.3335H2.19999C1.8318 7.3335 1.53333 7.03502 1.53333 6.66683V2.00016ZM2.86666 2.66683V6.00016H13.5333V2.66683H2.86666Z" fill="#0F172A"/>
<path fill-rule="evenodd" clip-rule="evenodd" d="M10.2 9.33317C10.2 8.96498 10.4984 8.6665 10.8666 8.6665H14.2C14.5681 8.6665 14.8666 8.96498 14.8666 9.33317V13.9998C14.8666 14.368 14.5681 14.6665 14.2 14.6665H10.8666C10.4984 14.6665 10.2 14.368 10.2 13.9998V9.33317ZM11.5333 9.99984V13.3332H13.5333V9.99984H11.5333Z" fill="#0F172A"/>
<path fill-rule="evenodd" clip-rule="evenodd" d="M1.53333 9.33317C1.53333 8.96498 1.8318 8.6665 2.19999 8.6665H8.19999C8.56818 8.6665 8.86666 8.96498 8.86666 9.33317V13.9998C8.86666 14.368 8.56818 14.6665 8.19999 14.6665H2.19999C1.8318 14.6665 1.53333 14.368 1.53333 13.9998V9.33317ZM2.86666 9.99984V13.3332H7.53333V9.99984H2.86666Z" fill="#0F172A"/>
</svg>
