<svg width="16" height="16" viewBox="0 0 16 16" fill="none" xmlns="http://www.w3.org/2000/svg">
<path fill-rule="evenodd" clip-rule="evenodd" d="M1.33331 2.66683C1.33331 1.93045 1.93027 1.3335 2.66665 1.3335H4.66665C5.40303 1.3335 5.99998 1.93045 5.99998 2.66683V4.66683C5.99998 5.40321 5.40303 6.00016 4.66665 6.00016H2.66665C1.93027 6.00016 1.33331 5.40321 1.33331 4.66683V2.66683ZM4.66665 2.66683H2.66665V4.66683H4.66665V2.66683Z" fill="#71717A"/>
<path fill-rule="evenodd" clip-rule="evenodd" d="M10 2.66683C10 1.93045 10.597 1.3335 11.3333 1.3335H13.3333C14.0697 1.3335 14.6667 1.93045 14.6667 2.66683V4.66683C14.6667 5.40321 14.0697 6.00016 13.3333 6.00016H11.3333C10.597 6.00016 10 5.40321 10 4.66683V2.66683ZM13.3333 2.66683H11.3333V4.66683H13.3333V2.66683Z" fill="#71717A"/>
<path fill-rule="evenodd" clip-rule="evenodd" d="M1.33331 11.3333C1.33331 10.597 1.93027 10 2.66665 10H4.66665C5.40303 10 5.99998 10.597 5.99998 11.3333V13.3333C5.99998 14.0697 5.40303 14.6667 4.66665 14.6667H2.66665C1.93027 14.6667 1.33331 14.0697 1.33331 13.3333V11.3333ZM4.66665 11.3333H2.66665V13.3333H4.66665V11.3333Z" fill="#71717A"/>
<path fill-rule="evenodd" clip-rule="evenodd" d="M10.5858 10.5858C10.9609 10.2107 11.4696 10 12 10H14C14.3682 10 14.6667 10.2985 14.6667 10.6667C14.6667 11.0349 14.3682 11.3333 14 11.3333H12C11.8232 11.3333 11.6536 11.4036 11.5286 11.5286C11.4036 11.6536 11.3333 11.8232 11.3333 12V14C11.3333 14.3682 11.0349 14.6667 10.6667 14.6667C10.2985 14.6667 10 14.3682 10 14V12C10 11.4696 10.2107 10.9609 10.5858 10.5858Z" fill="#71717A"/>
<path fill-rule="evenodd" clip-rule="evenodd" d="M14 13.3335C14.3682 13.3335 14.6666 13.632 14.6666 14.0002V14.0068C14.6666 14.375 14.3682 14.6735 14 14.6735C13.6318 14.6735 13.3333 14.375 13.3333 14.0068V14.0002C13.3333 13.632 13.6318 13.3335 14 13.3335Z" fill="#71717A"/>
<path fill-rule="evenodd" clip-rule="evenodd" d="M8 4C8.36819 4 8.66667 4.29848 8.66667 4.66667V6.66667C8.66667 7.1971 8.45595 7.70581 8.08088 8.08088C7.70581 8.45595 7.1971 8.66667 6.66667 8.66667H4.66667C4.29848 8.66667 4 8.36819 4 8C4 7.63181 4.29848 7.33333 4.66667 7.33333H6.66667C6.84348 7.33333 7.01305 7.2631 7.13807 7.13807C7.2631 7.01305 7.33333 6.84348 7.33333 6.66667V4.66667C7.33333 4.29848 7.63181 4 8 4Z" fill="#71717A"/>
<path fill-rule="evenodd" clip-rule="evenodd" d="M1.33331 8.00016C1.33331 7.63197 1.63179 7.3335 1.99998 7.3335H2.00665C2.37484 7.3335 2.67331 7.63197 2.67331 8.00016C2.67331 8.36835 2.37484 8.66683 2.00665 8.66683H1.99998C1.63179 8.66683 1.33331 8.36835 1.33331 8.00016Z" fill="#71717A"/>
<path fill-rule="evenodd" clip-rule="evenodd" d="M7.33331 2.00016C7.33331 1.63197 7.63179 1.3335 7.99998 1.3335H8.00665C8.37484 1.3335 8.67331 1.63197 8.67331 2.00016C8.67331 2.36835 8.37484 2.66683 8.00665 2.66683H7.99998C7.63179 2.66683 7.33331 2.36835 7.33331 2.00016Z" fill="#71717A"/>
<path fill-rule="evenodd" clip-rule="evenodd" d="M7.99998 10C8.36817 10 8.66665 10.2985 8.66665 10.6667V10.6733C8.66665 11.0415 8.36817 11.34 7.99998 11.34C7.63179 11.34 7.33331 11.0415 7.33331 10.6733V10.6667C7.33331 10.2985 7.63179 10 7.99998 10Z" fill="#71717A"/>
<path fill-rule="evenodd" clip-rule="evenodd" d="M10 8.00016C10 7.63197 10.2985 7.3335 10.6667 7.3335H11.3333C11.7015 7.3335 12 7.63197 12 8.00016C12 8.36835 11.7015 8.66683 11.3333 8.66683H10.6667C10.2985 8.66683 10 8.36835 10 8.00016Z" fill="#71717A"/>
<path fill-rule="evenodd" clip-rule="evenodd" d="M14 7.3335C14.3682 7.3335 14.6666 7.63197 14.6666 8.00016V8.00683C14.6666 8.37502 14.3682 8.6735 14 8.6735C13.6318 8.6735 13.3333 8.37502 13.3333 8.00683V8.00016C13.3333 7.63197 13.6318 7.3335 14 7.3335Z" fill="#71717A"/>
<path fill-rule="evenodd" clip-rule="evenodd" d="M7.99998 12.6665C8.36817 12.6665 8.66665 12.965 8.66665 13.3332V13.9998C8.66665 14.368 8.36817 14.6665 7.99998 14.6665C7.63179 14.6665 7.33331 14.368 7.33331 13.9998V13.3332C7.33331 12.965 7.63179 12.6665 7.99998 12.6665Z" fill="#71717A"/>
</svg>
