<svg width="16" height="16" viewBox="0 0 16 16" fill="none" xmlns="http://www.w3.org/2000/svg">
<path d="M13.3334 4C13.7015 4 14 4.29848 14 4.66667C14 5.03486 13.7015 5.33333 13.3334 5.33333H7.33335C6.96516 5.33333 6.66669 5.03486 6.66669 4.66667C6.66669 4.29848 6.96516 4 7.33335 4H13.3334Z" fill="#1E6EB4"/>
<path d="M9.33335 10.6665C9.70154 10.6665 10 10.965 10 11.3332C10 11.7014 9.70154 11.9998 9.33335 11.9998H3.33335C2.96516 11.9998 2.66669 11.7014 2.66669 11.3332C2.66669 10.965 2.96516 10.6665 3.33335 10.6665H9.33335Z" fill="#1E6EB4"/>
<path d="M12.6667 11.3332C12.6667 10.5968 12.0697 9.99984 11.3334 9.99984C10.597 9.99984 10 10.5968 10 11.3332C10 12.0696 10.597 12.6665 11.3334 12.6665C12.0697 12.6665 12.6667 12.0696 12.6667 11.3332ZM14 11.3332C14 12.8059 12.8061 13.9998 11.3334 13.9998C9.86059 13.9998 8.66669 12.8059 8.66669 11.3332C8.66669 9.86041 9.86059 8.6665 11.3334 8.6665C12.8061 8.6665 14 9.86041 14 11.3332Z" fill="#1E6EB4"/>
<path d="M6 4.66667C6 3.93029 5.40305 3.33333 4.66667 3.33333C3.93029 3.33333 3.33333 3.93029 3.33333 4.66667C3.33333 5.40305 3.93029 6 4.66667 6C5.40305 6 6 5.40305 6 4.66667ZM7.33333 4.66667C7.33333 6.13943 6.13943 7.33333 4.66667 7.33333C3.19391 7.33333 2 6.13943 2 4.66667C2 3.19391 3.19391 2 4.66667 2C6.13943 2 7.33333 3.19391 7.33333 4.66667Z" fill="#1E6EB4"/>
</svg>
