<svg width="16" height="16" viewBox="0 0 16 16" fill="none" xmlns="http://www.w3.org/2000/svg">
<path fill-rule="evenodd" clip-rule="evenodd" d="M7.33337 2.66683C4.75605 2.66683 2.66671 4.75617 2.66671 7.3335C2.66671 9.91083 4.75605 12.0002 7.33337 12.0002C9.9107 12.0002 12 9.91083 12 7.3335C12 4.75617 9.9107 2.66683 7.33337 2.66683ZM1.33337 7.3335C1.33337 4.01979 4.01967 1.3335 7.33337 1.3335C10.6471 1.3335 13.3334 4.01979 13.3334 7.3335C13.3334 10.6472 10.6471 13.3335 7.33337 13.3335C4.01967 13.3335 1.33337 10.6472 1.33337 7.3335Z" fill="#0F172A"/>
<path fill-rule="evenodd" clip-rule="evenodd" d="M10.6286 10.6284C10.889 10.368 11.3111 10.368 11.5714 10.6284L14.4714 13.5284C14.7318 13.7887 14.7318 14.2108 14.4714 14.4712C14.2111 14.7315 13.789 14.7315 13.5286 14.4712L10.6286 11.5712C10.3683 11.3108 10.3683 10.8887 10.6286 10.6284Z" fill="#0F172A"/>
</svg>
