<svg width="24" height="24" viewBox="0 0 24 24" fill="none" xmlns="http://www.w3.org/2000/svg">
<path d="M10.4051 4.82069C10.61 3.99059 11.7901 3.99059 11.995 4.82069C12.8698 8.364 15.6364 11.1305 19.1797 12.0052C20.0099 12.2102 20.0099 13.3903 19.1797 13.5952C15.6364 14.4699 12.8698 17.2364 11.995 20.7798C11.7901 21.6099 10.61 21.6099 10.4051 20.7798C9.53033 17.2364 6.76372 14.4699 3.22039 13.5952C2.39027 13.3903 2.39027 12.2102 3.2204 12.0052C6.76372 11.1305 9.53033 8.364 10.4051 4.82069Z" fill="white"/>
<path d="M19.1414 1.30338C19.2243 0.967382 19.702 0.967382 19.7849 1.30338C20.139 2.73757 21.2588 3.85736 22.693 4.21141C23.029 4.29435 23.029 4.77202 22.693 4.85496C21.2588 5.20901 20.139 6.3288 19.7849 7.763C19.702 8.09899 19.2243 8.09899 19.1414 7.763C18.7873 6.3288 17.6675 5.20901 16.2333 4.85496C15.8973 4.77202 15.8973 4.29435 16.2333 4.21141C17.6675 3.85736 18.7873 2.73757 19.1414 1.30338Z" fill="white"/>
</svg>
